solid OpenSCAD_Model
  facet normal -1 -0 -0
    outer loop
      vertex -41.4817 -23.3356 0
      vertex -41.4817 -23.3356 2
      vertex -41.4817 46.5356 0
    endloop
  endfacet
  facet normal -1 0 0
    outer loop
      vertex -41.4817 46.5356 0
      vertex -41.4817 -23.3356 2
      vertex -41.4817 46.5356 2
    endloop
  endfacet
  facet normal -0.913545 -0.406737 -0
    outer loop
      vertex -41.4817 -23.3356 0
      vertex -40.7206 -25.045 0
      vertex -41.4817 -23.3356 2
    endloop
  endfacet
  facet normal -0.913545 -0.406737 0
    outer loop
      vertex -41.4817 -23.3356 2
      vertex -40.7206 -25.045 0
      vertex -40.7206 -25.045 2
    endloop
  endfacet
  facet normal -0 -0 -1
    outer loop
      vertex -41.4817 -23.3356 0
      vertex -41.4817 46.5356 0
      vertex -40.7206 -25.045 0
    endloop
  endfacet
  facet normal 0 0 -1
    outer loop
      vertex -40.7206 -25.045 0
      vertex -41.4817 46.5356 0
      vertex -40.7206 48.245 0
    endloop
  endfacet
  facet normal 0 -0 -1
    outer loop
      vertex -39.58 45.6 0
      vertex -40.7206 48.245 0
      vertex -39.33 49.4971 0
    endloop
  endfacet
  facet normal 0 -0 -1
    outer loop
      vertex -38.8478 47.3678 0
      vertex -39.33 49.4971 0
      vertex -37.5504 50.0753 0
    endloop
  endfacet
  facet normal 0 -0 -1
    outer loop
      vertex -35.3122 47.3678 0
      vertex -37.5504 50.0753 0
      vertex 37.4496 50.0753 0
    endloop
  endfacet
  facet normal 0 0 -1
    outer loop
      vertex 36.1522 47.3678 0
      vertex 37.4496 50.0753 0
      vertex 39.3106 49.8798 0
    endloop
  endfacet
  facet normal 0 0 -1
    outer loop
      vertex 37.92 48.1 0
      vertex 39.3106 49.8798 0
      vertex 40.9311 48.9442 0
    endloop
  endfacet
  facet normal 0 0 -1
    outer loop
      vertex 39.6878 47.3678 0
      vertex 40.9311 48.9442 0
      vertex 42.031 47.4303 0
    endloop
  endfacet
  facet normal -0 0 -1
    outer loop
      vertex 40.42 45.6 0
      vertex 42.031 47.4303 0
      vertex 42.42 45.6 0
    endloop
  endfacet
  facet normal -0 0 -1
    outer loop
      vertex 33.5183 -17.9247 0
      vertex 42.42 45.6 0
      vertex 42.42 -22.4 0
    endloop
  endfacet
  facet normal -0 0 -1
    outer loop
      vertex 38.6078 -24.1678 0
      vertex 42.42 -22.4 0
      vertex 42.031 -24.2303 0
    endloop
  endfacet
  facet normal -0 0 -1
    outer loop
      vertex 36.84 -24.9 0
      vertex 42.031 -24.2303 0
      vertex 40.9311 -25.7442 0
    endloop
  endfacet
  facet normal 0 0 -1
    outer loop
      vertex -40.7206 -25.045 0
      vertex 40.9311 -25.7442 0
      vertex 39.3106 -26.6798 0
    endloop
  endfacet
  facet normal 0 0 -1
    outer loop
      vertex -40.7206 -25.045 0
      vertex 39.3106 -26.6798 0
      vertex 37.4496 -26.8753 0
    endloop
  endfacet
  facet normal 0 0 -1
    outer loop
      vertex -40.7206 -25.045 0
      vertex 37.4496 -26.8753 0
      vertex -37.5504 -26.8753 0
    endloop
  endfacet
  facet normal 0 0 -1
    outer loop
      vertex -40.7206 -25.045 0
      vertex -37.5504 -26.8753 0
      vertex -39.33 -26.2971 0
    endloop
  endfacet
  facet normal 0 0 -1
    outer loop
      vertex -37.08 43.1 0
      vertex -38.8478 31.6278 0
      vertex -39.58 29.86 0
    endloop
  endfacet
  facet normal 0 0 -1
    outer loop
      vertex 35.0722 -24.1678 0
      vertex -40.7206 -25.045 0
      vertex -37.08 -24.9 0
    endloop
  endfacet
  facet normal 0 0 -1
    outer loop
      vertex -40.7206 -25.045 0
      vertex -38.8478 -24.1678 0
      vertex -37.08 -24.9 0
    endloop
  endfacet
  facet normal 0 0 -1
    outer loop
      vertex 35.0722 28.0922 0
      vertex 33.5183 26.9278 0
      vertex 33.1994 27.215 0
    endloop
  endfacet
  facet normal -0 -0 -1
    outer loop
      vertex -37.08 32.36 0
      vertex -37.08 43.1 0
      vertex -35.3122 31.6278 0
    endloop
  endfacet
  facet normal 0 0 -1
    outer loop
      vertex -37.08 27.36 0
      vertex -37.08 -19.9 0
      vertex -38.8478 -20.6322 0
    endloop
  endfacet
  facet normal 0 0 -1
    outer loop
      vertex -32.58 41.1247 0
      vertex 36.1522 47.3678 0
      vertex 35.42 45.6 0
    endloop
  endfacet
  facet normal 0 0 -1
    outer loop
      vertex -40.7206 -25.045 0
      vertex -39.58 29.86 0
      vertex -38.8478 28.0922 0
    endloop
  endfacet
  facet normal -0 0 -1
    outer loop
      vertex -32.58 41.1247 0
      vertex 35.42 45.6 0
      vertex 33.1471 41.1247 0
    endloop
  endfacet
  facet normal 0 0 -1
    outer loop
      vertex -32.58 -17.9247 0
      vertex -34.58 29.86 0
      vertex -32.58 41.1247 0
    endloop
  endfacet
  facet normal 0 0 -1
    outer loop
      vertex -32.58 -17.9247 0
      vertex -35.3122 28.0922 0
      vertex -34.58 29.86 0
    endloop
  endfacet
  facet normal 0 0 -1
    outer loop
      vertex -32.58 -17.9247 0
      vertex -37.08 27.36 0
      vertex -35.3122 28.0922 0
    endloop
  endfacet
  facet normal 0 0 -1
    outer loop
      vertex -39.58 29.86 0
      vertex -40.7206 -25.045 0
      vertex -39.58 45.6 0
    endloop
  endfacet
  facet normal 0 0 -1
    outer loop
      vertex -39.58 45.6 0
      vertex -39.33 49.4971 0
      vertex -38.8478 47.3678 0
    endloop
  endfacet
  facet normal 0 -0 -1
    outer loop
      vertex -40.7206 -25.045 0
      vertex -40.7206 48.245 0
      vertex -39.58 45.6 0
    endloop
  endfacet
  facet normal 0 0 -1
    outer loop
      vertex -38.8478 43.8322 0
      vertex -39.58 29.86 0
      vertex -39.58 45.6 0
    endloop
  endfacet
  facet normal 0 0 -1
    outer loop
      vertex -37.08 43.1 0
      vertex -39.58 29.86 0
      vertex -38.8478 43.8322 0
    endloop
  endfacet
  facet normal 0 0 -1
    outer loop
      vertex -35.3122 43.8322 0
      vertex -34.58 29.86 0
      vertex -35.3122 31.6278 0
    endloop
  endfacet
  facet normal 0 0 -1
    outer loop
      vertex -35.3122 43.8322 0
      vertex -35.3122 31.6278 0
      vertex -37.08 43.1 0
    endloop
  endfacet
  facet normal 0 0 -1
    outer loop
      vertex -38.8478 47.3678 0
      vertex -37.5504 50.0753 0
      vertex -37.08 48.1 0
    endloop
  endfacet
  facet normal 0 -0 -1
    outer loop
      vertex -32.58 41.1247 0
      vertex -35.3122 43.8322 0
      vertex 37.4496 50.0753 0
    endloop
  endfacet
  facet normal 0 0 -1
    outer loop
      vertex -35.3122 43.8322 0
      vertex -34.58 45.6 0
      vertex 37.4496 50.0753 0
    endloop
  endfacet
  facet normal 0 -0 -1
    outer loop
      vertex -34.58 45.6 0
      vertex -35.3122 47.3678 0
      vertex 37.4496 50.0753 0
    endloop
  endfacet
  facet normal -0 -0 -1
    outer loop
      vertex -37.08 48.1 0
      vertex -37.5504 50.0753 0
      vertex -35.3122 47.3678 0
    endloop
  endfacet
  facet normal 0 0 -1
    outer loop
      vertex -32.58 41.1247 0
      vertex 37.4496 50.0753 0
      vertex 36.1522 47.3678 0
    endloop
  endfacet
  facet normal 0 -0 -1
    outer loop
      vertex -34.58 29.86 0
      vertex -35.3122 43.8322 0
      vertex -32.58 41.1247 0
    endloop
  endfacet
  facet normal 0 0 -1
    outer loop
      vertex -32.58 -17.9247 0
      vertex -37.08 -19.9 0
      vertex -37.08 27.36 0
    endloop
  endfacet
  facet normal 0 0 -1
    outer loop
      vertex -34.58 -22.4 0
      vertex 34.34 -22.4 0
      vertex -35.3122 -24.1678 0
    endloop
  endfacet
  facet normal -0 0 -1
    outer loop
      vertex 39.34 29.86 0
      vertex 42.42 45.6 0
      vertex 33.5183 -17.9247 0
    endloop
  endfacet
  facet normal -0 0 -1
    outer loop
      vertex -34.58 -22.4 0
      vertex 33.5183 -17.9247 0
      vertex 34.34 -22.4 0
    endloop
  endfacet
  facet normal 0 0 -1
    outer loop
      vertex 40.42 45.6 0
      vertex 42.42 45.6 0
      vertex 39.6878 43.8322 0
    endloop
  endfacet
  facet normal -0 0 -1
    outer loop
      vertex 39.6878 43.8322 0
      vertex 42.42 45.6 0
      vertex 32.4383 30.7956 0
    endloop
  endfacet
  facet normal -0 0 -1
    outer loop
      vertex 32.4383 30.7956 0
      vertex 42.42 45.6 0
      vertex 32.4383 28.9244 0
    endloop
  endfacet
  facet normal -0 0 -1
    outer loop
      vertex 37.92 43.1 0
      vertex 39.6878 43.8322 0
      vertex 32.4383 30.7956 0
    endloop
  endfacet
  facet normal -0 0 -1
    outer loop
      vertex 33.1471 41.1247 0
      vertex 37.92 43.1 0
      vertex 32.4383 30.7956 0
    endloop
  endfacet
  facet normal 0 0 -1
    outer loop
      vertex 33.5183 -17.9247 0
      vertex -35.3122 -20.6322 0
      vertex -32.58 -17.9247 0
    endloop
  endfacet
  facet normal -0 -0 -1
    outer loop
      vertex 38.6078 -20.6322 0
      vertex 33.5183 -17.9247 0
      vertex 42.42 -22.4 0
    endloop
  endfacet
  facet normal 0 0 -1
    outer loop
      vertex 36.84 -24.9 0
      vertex -40.7206 -25.045 0
      vertex 35.0722 -24.1678 0
    endloop
  endfacet
  facet normal 0 0 -1
    outer loop
      vertex 38.6078 -24.1678 0
      vertex 42.031 -24.2303 0
      vertex 36.84 -24.9 0
    endloop
  endfacet
  facet normal -0 0 -1
    outer loop
      vertex -40.7206 -25.045 0
      vertex 36.84 -24.9 0
      vertex 40.9311 -25.7442 0
    endloop
  endfacet
  facet normal 0 0 -1
    outer loop
      vertex 39.34 -22.4 0
      vertex 42.42 -22.4 0
      vertex 38.6078 -24.1678 0
    endloop
  endfacet
  facet normal -0 -0 -1
    outer loop
      vertex 36.84 -19.9 0
      vertex 33.5183 -17.9247 0
      vertex 38.6078 -20.6322 0
    endloop
  endfacet
  facet normal -0 -0 -1
    outer loop
      vertex 39.34 -22.4 0
      vertex 38.6078 -20.6322 0
      vertex 42.42 -22.4 0
    endloop
  endfacet
  facet normal 0 0 -1
    outer loop
      vertex 35.0722 28.0922 0
      vertex 33.1994 27.215 0
      vertex 34.34 29.86 0
    endloop
  endfacet
  facet normal 0 -0 -1
    outer loop
      vertex 34.34 -22.4 0
      vertex 33.5183 -17.9247 0
      vertex 35.0722 -20.6322 0
    endloop
  endfacet
  facet normal 0 0 -1
    outer loop
      vertex 36.1522 43.8322 0
      vertex 33.1471 41.1247 0
      vertex 35.42 45.6 0
    endloop
  endfacet
  facet normal -0 0 -1
    outer loop
      vertex 32.4383 28.9244 0
      vertex 34.34 29.86 0
      vertex 33.1994 27.215 0
    endloop
  endfacet
  facet normal 0 0 -1
    outer loop
      vertex 35.0722 31.6278 0
      vertex 42.42 45.6 0
      vertex 36.84 32.36 0
    endloop
  endfacet
  facet normal -0 0 -1
    outer loop
      vertex 33.5183 26.9278 0
      vertex 35.0722 28.0922 0
      vertex 33.5183 -17.9247 0
    endloop
  endfacet
  facet normal 0 0 -1
    outer loop
      vertex 35.0722 28.0922 0
      vertex 36.84 27.36 0
      vertex 33.5183 -17.9247 0
    endloop
  endfacet
  facet normal -0 0 -1
    outer loop
      vertex 36.84 32.36 0
      vertex 42.42 45.6 0
      vertex 38.6078 31.6278 0
    endloop
  endfacet
  facet normal -0 0 -1
    outer loop
      vertex 36.84 27.36 0
      vertex 38.6078 28.0922 0
      vertex 33.5183 -17.9247 0
    endloop
  endfacet
  facet normal -0 0 -1
    outer loop
      vertex 38.6078 28.0922 0
      vertex 39.34 29.86 0
      vertex 33.5183 -17.9247 0
    endloop
  endfacet
  facet normal -0 0 -1
    outer loop
      vertex 38.6078 31.6278 0
      vertex 42.42 45.6 0
      vertex 39.34 29.86 0
    endloop
  endfacet
  facet normal 0 0 -1
    outer loop
      vertex 32.4383 28.9244 0
      vertex 42.42 45.6 0
      vertex 35.0722 31.6278 0
    endloop
  endfacet
  facet normal 0 0 -1
    outer loop
      vertex 32.4383 28.9244 0
      vertex 35.0722 31.6278 0
      vertex 34.34 29.86 0
    endloop
  endfacet
  facet normal -0 0 -1
    outer loop
      vertex -37.08 -19.9 0
      vertex -32.58 -17.9247 0
      vertex -35.3122 -20.6322 0
    endloop
  endfacet
  facet normal 0 0 -1
    outer loop
      vertex 33.5183 -17.9247 0
      vertex -34.58 -22.4 0
      vertex -35.3122 -20.6322 0
    endloop
  endfacet
  facet normal 0 0 -1
    outer loop
      vertex 37.92 43.1 0
      vertex 33.1471 41.1247 0
      vertex 36.1522 43.8322 0
    endloop
  endfacet
  facet normal 0 0 -1
    outer loop
      vertex 35.0722 -24.1678 0
      vertex -37.08 -24.9 0
      vertex -35.3122 -24.1678 0
    endloop
  endfacet
  facet normal 0 0 -1
    outer loop
      vertex 35.0722 -24.1678 0
      vertex -35.3122 -24.1678 0
      vertex 34.34 -22.4 0
    endloop
  endfacet
  facet normal 0 -0 -1
    outer loop
      vertex 35.0722 -20.6322 0
      vertex 33.5183 -17.9247 0
      vertex 36.84 -19.9 0
    endloop
  endfacet
  facet normal -0 0 -1
    outer loop
      vertex 39.6878 47.3678 0
      vertex 42.031 47.4303 0
      vertex 40.42 45.6 0
    endloop
  endfacet
  facet normal -0 0 -1
    outer loop
      vertex 37.92 48.1 0
      vertex 40.9311 48.9442 0
      vertex 39.6878 47.3678 0
    endloop
  endfacet
  facet normal 0 0 -1
    outer loop
      vertex 36.1522 47.3678 0
      vertex 39.3106 49.8798 0
      vertex 37.92 48.1 0
    endloop
  endfacet
  facet normal 0 0 -1
    outer loop
      vertex -38.8478 -24.1678 0
      vertex -40.7206 -25.045 0
      vertex -39.58 -22.4 0
    endloop
  endfacet
  facet normal 0 0 -1
    outer loop
      vertex -37.08 27.36 0
      vertex -38.8478 -20.6322 0
      vertex -39.58 -22.4 0
    endloop
  endfacet
  facet normal 0 0 -1
    outer loop
      vertex -37.08 27.36 0
      vertex -39.58 -22.4 0
      vertex -40.7206 -25.045 0
    endloop
  endfacet
  facet normal 0 0 -1
    outer loop
      vertex -37.08 27.36 0
      vertex -40.7206 -25.045 0
      vertex -38.8478 28.0922 0
    endloop
  endfacet
  facet normal 0 0 -1
    outer loop
      vertex -37.08 43.1 0
      vertex -37.08 32.36 0
      vertex -38.8478 31.6278 0
    endloop
  endfacet
  facet normal -0.913545 0.406737 0
    outer loop
      vertex -41.4817 46.5356 0
      vertex -41.4817 46.5356 2
      vertex -40.7206 48.245 0
    endloop
  endfacet
  facet normal -0.913545 0.406737 0
    outer loop
      vertex -40.7206 48.245 0
      vertex -41.4817 46.5356 2
      vertex -40.7206 48.245 2
    endloop
  endfacet
  facet normal 0 -0 1
    outer loop
      vertex -41.4817 46.5356 2
      vertex -41.4817 -23.3356 2
      vertex -40.7206 -25.045 2
    endloop
  endfacet
  facet normal -0 0 1
    outer loop
      vertex -39.6642 -23.3406 2
      vertex -41.4817 46.5356 2
      vertex -40.7206 -25.045 2
    endloop
  endfacet
  facet normal 0 0 1
    outer loop
      vertex -38.8478 43.8322 2
      vertex -39.58 45.6 2
      vertex -41.4817 46.5356 2
    endloop
  endfacet
  facet normal 0 -0 1
    outer loop
      vertex 40.42 45.6 2
      vertex 39.6878 43.8322 2
      vertex 42.42 45.6 2
    endloop
  endfacet
  facet normal 0 -0 1
    outer loop
      vertex -35.3122 43.8322 2
      vertex -37.08 43.1 2
      vertex -32.58 41.1247 2
    endloop
  endfacet
  facet normal 0 0 1
    outer loop
      vertex -39.58 45.6 2
      vertex -38.8478 47.3678 2
      vertex -41.4817 46.5356 2
    endloop
  endfacet
  facet normal -0 -0 1
    outer loop
      vertex 34.2558 -23.3406 2
      vertex -32.58 -17.9247 2
      vertex 35.465 -24.7816 2
    endloop
  endfacet
  facet normal 0 0 1
    outer loop
      vertex 39.59 -22.4 2
      vertex 40.9311 -25.7442 2
      vertex 42.031 -24.2303 2
    endloop
  endfacet
  facet normal 0 -0 1
    outer loop
      vertex 33.5183 26.9278 2
      vertex 33.5183 -17.9247 2
      vertex 37.3175 -19.6918 2
    endloop
  endfacet
  facet normal 0 0 1
    outer loop
      vertex -35.3122 47.3678 2
      vertex -34.58 45.6 2
      vertex 35.42 45.6 2
    endloop
  endfacet
  facet normal 0 0 1
    outer loop
      vertex 37.92 48.1 2
      vertex 39.6878 47.3678 2
      vertex 42.031 47.4303 2
    endloop
  endfacet
  facet normal 0 0 1
    outer loop
      vertex -37.08 48.1 2
      vertex -35.3122 47.3678 2
      vertex 37.4496 50.0753 2
    endloop
  endfacet
  facet normal 0 -0 1
    outer loop
      vertex -39.33 49.4971 2
      vertex -41.4817 46.5356 2
      vertex -37.5504 50.0753 2
    endloop
  endfacet
  facet normal 0 -0 1
    outer loop
      vertex -40.7206 48.245 2
      vertex -41.4817 46.5356 2
      vertex -39.33 49.4971 2
    endloop
  endfacet
  facet normal 0 0 1
    outer loop
      vertex -39.33 -26.2971 2
      vertex -39.6642 -23.3406 2
      vertex -40.7206 -25.045 2
    endloop
  endfacet
  facet normal -0 0 1
    outer loop
      vertex -39.6642 -21.4594 2
      vertex -41.4817 46.5356 2
      vertex -39.6642 -23.3406 2
    endloop
  endfacet
  facet normal 0 0 1
    outer loop
      vertex -38.455 -20.0184 2
      vertex -36.6025 -19.6918 2
      vertex -41.4817 46.5356 2
    endloop
  endfacet
  facet normal -0 0 1
    outer loop
      vertex -36.6025 -25.1082 2
      vertex -38.455 -24.7816 2
      vertex -37.5504 -26.8753 2
    endloop
  endfacet
  facet normal 0 0 1
    outer loop
      vertex -34.9734 -24.1677 2
      vertex -36.6025 -25.1082 2
      vertex -37.5504 -26.8753 2
    endloop
  endfacet
  facet normal -0 -0 1
    outer loop
      vertex -39.6642 28.9194 2
      vertex -41.4817 46.5356 2
      vertex -36.6025 -19.6918 2
    endloop
  endfacet
  facet normal 0 0 1
    outer loop
      vertex -32.58 41.1247 2
      vertex -34.58 45.6 2
      vertex -35.3122 43.8322 2
    endloop
  endfacet
  facet normal 0 0 1
    outer loop
      vertex 37.4496 -26.8753 2
      vertex -36.6025 -19.6918 2
      vertex -34.9734 -20.6323 2
    endloop
  endfacet
  facet normal 0 0 1
    outer loop
      vertex 37.4496 -26.8753 2
      vertex -34.9734 -20.6323 2
      vertex -34.33 -22.4 2
    endloop
  endfacet
  facet normal -0 0 1
    outer loop
      vertex 37.4496 -26.8753 2
      vertex -34.9734 -24.1677 2
      vertex -37.5504 -26.8753 2
    endloop
  endfacet
  facet normal 0 0 1
    outer loop
      vertex 37.4496 -26.8753 2
      vertex -34.33 -22.4 2
      vertex -34.9734 -24.1677 2
    endloop
  endfacet
  facet normal 0 0 1
    outer loop
      vertex -37.5504 -26.8753 2
      vertex -38.455 -24.7816 2
      vertex -39.33 -26.2971 2
    endloop
  endfacet
  facet normal -0 -0 1
    outer loop
      vertex -38.455 27.4784 2
      vertex -39.6642 28.9194 2
      vertex -36.6025 -19.6918 2
    endloop
  endfacet
  facet normal -0 0 1
    outer loop
      vertex -39.6642 30.8006 2
      vertex -41.4817 46.5356 2
      vertex -39.6642 28.9194 2
    endloop
  endfacet
  facet normal -0 0 1
    outer loop
      vertex -38.455 32.2416 2
      vertex -41.4817 46.5356 2
      vertex -39.6642 30.8006 2
    endloop
  endfacet
  facet normal -0 0 1
    outer loop
      vertex -36.6025 32.5682 2
      vertex -41.4817 46.5356 2
      vertex -38.455 32.2416 2
    endloop
  endfacet
  facet normal 0 0 1
    outer loop
      vertex -34.9734 31.6277 2
      vertex -41.4817 46.5356 2
      vertex -36.6025 32.5682 2
    endloop
  endfacet
  facet normal -0 -0 1
    outer loop
      vertex -38.8478 43.8322 2
      vertex -41.4817 46.5356 2
      vertex -34.9734 31.6277 2
    endloop
  endfacet
  facet normal 0 0 1
    outer loop
      vertex 34.2558 -21.4594 2
      vertex 35.465 -20.0184 2
      vertex 33.5183 -17.9247 2
    endloop
  endfacet
  facet normal 0 0 1
    outer loop
      vertex 38.9466 -24.1677 2
      vertex 39.3106 -26.6798 2
      vertex 40.9311 -25.7442 2
    endloop
  endfacet
  facet normal -0 0 1
    outer loop
      vertex -32.58 -17.9247 2
      vertex -38.455 27.4784 2
      vertex -36.6025 -19.6918 2
    endloop
  endfacet
  facet normal 0 0 1
    outer loop
      vertex -35.3122 47.3678 2
      vertex 40.9311 48.9442 2
      vertex 39.3106 49.8798 2
    endloop
  endfacet
  facet normal 0 0 1
    outer loop
      vertex -34.33 29.86 2
      vertex -32.58 41.1247 2
      vertex -37.08 43.1 2
    endloop
  endfacet
  facet normal 0 0 1
    outer loop
      vertex 33.5183 -17.9247 2
      vertex 34.2558 -23.3406 2
      vertex 34.2558 -21.4594 2
    endloop
  endfacet
  facet normal 0 0 1
    outer loop
      vertex 37.92 48.1 2
      vertex 42.031 47.4303 2
      vertex 40.9311 48.9442 2
    endloop
  endfacet
  facet normal 0 0 1
    outer loop
      vertex -37.5504 50.0753 2
      vertex -41.4817 46.5356 2
      vertex -38.8478 47.3678 2
    endloop
  endfacet
  facet normal 0 0 1
    outer loop
      vertex -37.5504 50.0753 2
      vertex -37.08 48.1 2
      vertex 37.4496 50.0753 2
    endloop
  endfacet
  facet normal 0 -0 1
    outer loop
      vertex -37.5504 50.0753 2
      vertex -38.8478 47.3678 2
      vertex -37.08 48.1 2
    endloop
  endfacet
  facet normal 0 0 1
    outer loop
      vertex -32.58 -17.9247 2
      vertex -34.33 29.86 2
      vertex -34.9734 28.0923 2
    endloop
  endfacet
  facet normal 0 0 1
    outer loop
      vertex 33.5183 26.9278 2
      vertex 37.3175 -19.6918 2
      vertex 42.42 -22.4 2
    endloop
  endfacet
  facet normal 0 0 1
    outer loop
      vertex -32.58 -17.9247 2
      vertex -36.6025 27.1518 2
      vertex -38.455 27.4784 2
    endloop
  endfacet
  facet normal 0 0 1
    outer loop
      vertex -35.3122 47.3678 2
      vertex 39.3106 49.8798 2
      vertex 37.4496 50.0753 2
    endloop
  endfacet
  facet normal 0 0 1
    outer loop
      vertex 37.4496 -26.8753 2
      vertex -32.58 -17.9247 2
      vertex -36.6025 -19.6918 2
    endloop
  endfacet
  facet normal 0 0 1
    outer loop
      vertex 35.465 -20.0184 2
      vertex 37.3175 -19.6918 2
      vertex 33.5183 -17.9247 2
    endloop
  endfacet
  facet normal 0 0 1
    outer loop
      vertex -32.58 -17.9247 2
      vertex -34.9734 28.0923 2
      vertex -36.6025 27.1518 2
    endloop
  endfacet
  facet normal -0 0 1
    outer loop
      vertex 37.92 43.1 2
      vertex 36.1522 43.8322 2
      vertex 33.1471 41.1247 2
    endloop
  endfacet
  facet normal -0 0 1
    outer loop
      vertex 36.1522 43.8322 2
      vertex -34.58 45.6 2
      vertex 33.1471 41.1247 2
    endloop
  endfacet
  facet normal 0 0 1
    outer loop
      vertex 32.4383 28.9244 2
      vertex 33.1994 27.215 2
      vertex 32.4383 30.7956 2
    endloop
  endfacet
  facet normal 0 -0 1
    outer loop
      vertex 33.1471 41.1247 2
      vertex 32.4383 30.7956 2
      vertex 33.1994 27.215 2
    endloop
  endfacet
  facet normal 0 -0 1
    outer loop
      vertex 34.2558 28.9194 2
      vertex 33.5183 26.9278 2
      vertex 42.42 -22.4 2
    endloop
  endfacet
  facet normal 0 0 1
    outer loop
      vertex 33.1471 41.1247 2
      vertex 33.1994 27.215 2
      vertex 33.5183 26.9278 2
    endloop
  endfacet
  facet normal 0 -0 1
    outer loop
      vertex 39.59 -22.4 2
      vertex 38.9466 -24.1677 2
      vertex 40.9311 -25.7442 2
    endloop
  endfacet
  facet normal 0 0 1
    outer loop
      vertex -35.3122 47.3678 2
      vertex 36.1522 47.3678 2
      vertex 37.92 48.1 2
    endloop
  endfacet
  facet normal 0 0 1
    outer loop
      vertex 37.3175 -25.1082 2
      vertex 37.4496 -26.8753 2
      vertex 39.3106 -26.6798 2
    endloop
  endfacet
  facet normal -0 -0 1
    outer loop
      vertex 35.465 -24.7816 2
      vertex -32.58 -17.9247 2
      vertex 37.4496 -26.8753 2
    endloop
  endfacet
  facet normal -0 0 1
    outer loop
      vertex 42.42 -22.4 2
      vertex 38.9466 -20.6323 2
      vertex 42.031 -24.2303 2
    endloop
  endfacet
  facet normal 0 0 1
    outer loop
      vertex 42.42 -22.4 2
      vertex 37.3175 -19.6918 2
      vertex 38.9466 -20.6323 2
    endloop
  endfacet
  facet normal 0 0 1
    outer loop
      vertex 38.9466 -20.6323 2
      vertex 39.59 -22.4 2
      vertex 42.031 -24.2303 2
    endloop
  endfacet
  facet normal -0 -0 1
    outer loop
      vertex 37.3175 -25.1082 2
      vertex 35.465 -24.7816 2
      vertex 37.4496 -26.8753 2
    endloop
  endfacet
  facet normal 0 0 1
    outer loop
      vertex -34.33 29.86 2
      vertex -38.8478 43.8322 2
      vertex -34.9734 31.6277 2
    endloop
  endfacet
  facet normal -0 -0 1
    outer loop
      vertex 35.465 27.4784 2
      vertex 34.2558 28.9194 2
      vertex 42.42 -22.4 2
    endloop
  endfacet
  facet normal 0 -0 1
    outer loop
      vertex 39.59 29.86 2
      vertex 38.9466 28.0923 2
      vertex 42.42 -22.4 2
    endloop
  endfacet
  facet normal 0 0 1
    outer loop
      vertex -35.3122 47.3678 2
      vertex 37.92 48.1 2
      vertex 40.9311 48.9442 2
    endloop
  endfacet
  facet normal 0 0 1
    outer loop
      vertex 33.1471 41.1247 2
      vertex 33.5183 26.9278 2
      vertex 34.2558 28.9194 2
    endloop
  endfacet
  facet normal 0 0 1
    outer loop
      vertex 34.2558 30.8006 2
      vertex 35.465 32.2416 2
      vertex 33.1471 41.1247 2
    endloop
  endfacet
  facet normal 0 0 1
    outer loop
      vertex 33.1471 41.1247 2
      vertex 34.2558 28.9194 2
      vertex 34.2558 30.8006 2
    endloop
  endfacet
  facet normal 0 0 1
    outer loop
      vertex 37.92 43.1 2
      vertex 33.1471 41.1247 2
      vertex 35.465 32.2416 2
    endloop
  endfacet
  facet normal -0 -0 1
    outer loop
      vertex 37.3175 27.1518 2
      vertex 35.465 27.4784 2
      vertex 42.42 -22.4 2
    endloop
  endfacet
  facet normal 0 0 1
    outer loop
      vertex 42.42 45.6 2
      vertex 35.465 32.2416 2
      vertex 37.3175 32.5682 2
    endloop
  endfacet
  facet normal 0 -0 1
    outer loop
      vertex 38.9466 28.0923 2
      vertex 37.3175 27.1518 2
      vertex 42.42 -22.4 2
    endloop
  endfacet
  facet normal 0 0 1
    outer loop
      vertex 42.42 45.6 2
      vertex 37.3175 32.5682 2
      vertex 38.9466 31.6277 2
    endloop
  endfacet
  facet normal 0 0 1
    outer loop
      vertex 42.42 45.6 2
      vertex 39.59 29.86 2
      vertex 42.42 -22.4 2
    endloop
  endfacet
  facet normal 0 0 1
    outer loop
      vertex 42.42 45.6 2
      vertex 38.9466 31.6277 2
      vertex 39.59 29.86 2
    endloop
  endfacet
  facet normal 0 0 1
    outer loop
      vertex 36.1522 43.8322 2
      vertex 35.42 45.6 2
      vertex -34.58 45.6 2
    endloop
  endfacet
  facet normal 0 0 1
    outer loop
      vertex 39.6878 47.3678 2
      vertex 40.42 45.6 2
      vertex 42.42 45.6 2
    endloop
  endfacet
  facet normal 0 0 1
    outer loop
      vertex -34.33 29.86 2
      vertex -37.08 43.1 2
      vertex -38.8478 43.8322 2
    endloop
  endfacet
  facet normal 0 -0 1
    outer loop
      vertex 42.031 47.4303 2
      vertex 39.6878 47.3678 2
      vertex 42.42 45.6 2
    endloop
  endfacet
  facet normal 0 -0 1
    outer loop
      vertex 38.9466 -24.1677 2
      vertex 37.3175 -25.1082 2
      vertex 39.3106 -26.6798 2
    endloop
  endfacet
  facet normal 0 0 1
    outer loop
      vertex 42.42 45.6 2
      vertex 39.6878 43.8322 2
      vertex 35.465 32.2416 2
    endloop
  endfacet
  facet normal 0 0 1
    outer loop
      vertex 39.6878 43.8322 2
      vertex 37.92 43.1 2
      vertex 35.465 32.2416 2
    endloop
  endfacet
  facet normal 0 0 1
    outer loop
      vertex 35.42 45.6 2
      vertex 36.1522 47.3678 2
      vertex -35.3122 47.3678 2
    endloop
  endfacet
  facet normal 0 0 1
    outer loop
      vertex -39.6642 -21.4594 2
      vertex -38.455 -20.0184 2
      vertex -41.4817 46.5356 2
    endloop
  endfacet
  facet normal -0 0 1
    outer loop
      vertex -38.455 -24.7816 2
      vertex -39.6642 -23.3406 2
      vertex -39.33 -26.2971 2
    endloop
  endfacet
  facet normal 0 0 1
    outer loop
      vertex -32.58 41.1247 2
      vertex 33.1471 41.1247 2
      vertex -34.58 45.6 2
    endloop
  endfacet
  facet normal 0 0 1
    outer loop
      vertex -32.58 -17.9247 2
      vertex -32.58 41.1247 2
      vertex -34.33 29.86 2
    endloop
  endfacet
  facet normal 0 -0 1
    outer loop
      vertex 33.5183 -17.9247 2
      vertex -32.58 -17.9247 2
      vertex 34.2558 -23.3406 2
    endloop
  endfacet
  facet normal -0.669131 -0.743145 0
    outer loop
      vertex -40.7206 -25.045 2
      vertex -40.7206 -25.045 0
      vertex -39.33 -26.2971 0
    endloop
  endfacet
  facet normal -0.669131 -0.743145 0
    outer loop
      vertex -39.33 -26.2971 2
      vertex -40.7206 -25.045 2
      vertex -39.33 -26.2971 0
    endloop
  endfacet
  facet normal -0.309017 -0.951056 0
    outer loop
      vertex -39.33 -26.2971 2
      vertex -39.33 -26.2971 0
      vertex -37.5504 -26.8753 0
    endloop
  endfacet
  facet normal -0.309017 -0.951056 0
    outer loop
      vertex -37.5504 -26.8753 2
      vertex -39.33 -26.2971 2
      vertex -37.5504 -26.8753 0
    endloop
  endfacet
  facet normal 0 -1 0
    outer loop
      vertex -37.5504 -26.8753 2
      vertex -37.5504 -26.8753 0
      vertex 37.4496 -26.8753 0
    endloop
  endfacet
  facet normal 0 -1 0
    outer loop
      vertex 37.4496 -26.8753 2
      vertex -37.5504 -26.8753 2
      vertex 37.4496 -26.8753 0
    endloop
  endfacet
  facet normal 0.104529 -0.994522 0
    outer loop
      vertex 37.4496 -26.8753 2
      vertex 37.4496 -26.8753 0
      vertex 39.3106 -26.6798 0
    endloop
  endfacet
  facet normal 0.104529 -0.994522 0
    outer loop
      vertex 39.3106 -26.6798 2
      vertex 37.4496 -26.8753 2
      vertex 39.3106 -26.6798 0
    endloop
  endfacet
  facet normal 0.5 -0.866026 0
    outer loop
      vertex 39.3106 -26.6798 2
      vertex 39.3106 -26.6798 0
      vertex 40.9311 -25.7442 0
    endloop
  endfacet
  facet normal 0.5 -0.866026 0
    outer loop
      vertex 40.9311 -25.7442 2
      vertex 39.3106 -26.6798 2
      vertex 40.9311 -25.7442 0
    endloop
  endfacet
  facet normal 0.809017 -0.587785 0
    outer loop
      vertex 40.9311 -25.7442 2
      vertex 40.9311 -25.7442 0
      vertex 42.031 -24.2303 0
    endloop
  endfacet
  facet normal 0.809017 -0.587785 0
    outer loop
      vertex 42.031 -24.2303 2
      vertex 40.9311 -25.7442 2
      vertex 42.031 -24.2303 0
    endloop
  endfacet
  facet normal 0.978148 -0.207911 0
    outer loop
      vertex 42.031 -24.2303 2
      vertex 42.031 -24.2303 0
      vertex 42.42 -22.4 0
    endloop
  endfacet
  facet normal 0.978148 -0.207911 0
    outer loop
      vertex 42.42 -22.4 2
      vertex 42.031 -24.2303 2
      vertex 42.42 -22.4 0
    endloop
  endfacet
  facet normal 1 0 -0
    outer loop
      vertex 42.42 -22.4 2
      vertex 42.42 -22.4 0
      vertex 42.42 45.6 0
    endloop
  endfacet
  facet normal 1 0 0
    outer loop
      vertex 42.42 45.6 2
      vertex 42.42 -22.4 2
      vertex 42.42 45.6 0
    endloop
  endfacet
  facet normal 0.978148 0.207911 0
    outer loop
      vertex 42.42 45.6 0
      vertex 42.031 47.4303 0
      vertex 42.031 47.4303 2
    endloop
  endfacet
  facet normal 0.978148 0.207911 -0
    outer loop
      vertex 42.42 45.6 2
      vertex 42.42 45.6 0
      vertex 42.031 47.4303 2
    endloop
  endfacet
  facet normal 0.809017 0.587785 0
    outer loop
      vertex 42.031 47.4303 0
      vertex 40.9311 48.9442 0
      vertex 40.9311 48.9442 2
    endloop
  endfacet
  facet normal 0.809017 0.587785 -0
    outer loop
      vertex 42.031 47.4303 2
      vertex 42.031 47.4303 0
      vertex 40.9311 48.9442 2
    endloop
  endfacet
  facet normal 0.5 0.866026 0
    outer loop
      vertex 39.3106 49.8798 0
      vertex 39.3106 49.8798 2
      vertex 40.9311 48.9442 0
    endloop
  endfacet
  facet normal 0.5 0.866026 0
    outer loop
      vertex 40.9311 48.9442 0
      vertex 39.3106 49.8798 2
      vertex 40.9311 48.9442 2
    endloop
  endfacet
  facet normal 0.104529 0.994522 0
    outer loop
      vertex 37.4496 50.0753 0
      vertex 37.4496 50.0753 2
      vertex 39.3106 49.8798 0
    endloop
  endfacet
  facet normal 0.104529 0.994522 0
    outer loop
      vertex 39.3106 49.8798 0
      vertex 37.4496 50.0753 2
      vertex 39.3106 49.8798 2
    endloop
  endfacet
  facet normal 0 1 0
    outer loop
      vertex -37.5504 50.0753 0
      vertex -37.5504 50.0753 2
      vertex 37.4496 50.0753 0
    endloop
  endfacet
  facet normal 0 1 0
    outer loop
      vertex 37.4496 50.0753 0
      vertex -37.5504 50.0753 2
      vertex 37.4496 50.0753 2
    endloop
  endfacet
  facet normal -0.309017 0.951056 0
    outer loop
      vertex -39.33 49.4971 0
      vertex -39.33 49.4971 2
      vertex -37.5504 50.0753 0
    endloop
  endfacet
  facet normal -0.309017 0.951056 0
    outer loop
      vertex -37.5504 50.0753 0
      vertex -39.33 49.4971 2
      vertex -37.5504 50.0753 2
    endloop
  endfacet
  facet normal -0.669131 0.743145 0
    outer loop
      vertex -40.7206 48.245 0
      vertex -40.7206 48.245 2
      vertex -39.33 49.4971 0
    endloop
  endfacet
  facet normal -0.669131 0.743145 0
    outer loop
      vertex -39.33 49.4971 0
      vertex -40.7206 48.245 2
      vertex -39.33 49.4971 2
    endloop
  endfacet
  facet normal 0.92388 0.382683 0
    outer loop
      vertex -39.58 -22.4 3
      vertex -38.8478 -24.1678 3
      vertex -38.8478 -24.1678 0
    endloop
  endfacet
  facet normal 0.92388 0.382683 0
    outer loop
      vertex -39.58 -22.4 0
      vertex -39.58 -22.4 3
      vertex -38.8478 -24.1678 0
    endloop
  endfacet
  facet normal 0.92388 -0.382683 0
    outer loop
      vertex -38.8478 -20.6322 0
      vertex -38.8478 -20.6322 3
      vertex -39.58 -22.4 3
    endloop
  endfacet
  facet normal 0.92388 -0.382683 0
    outer loop
      vertex -39.58 -22.4 0
      vertex -38.8478 -20.6322 0
      vertex -39.58 -22.4 3
    endloop
  endfacet
  facet normal 0.382683 -0.92388 0
    outer loop
      vertex -37.08 -19.9 0
      vertex -37.08 -19.9 3
      vertex -38.8478 -20.6322 3
    endloop
  endfacet
  facet normal 0.382683 -0.92388 0
    outer loop
      vertex -38.8478 -20.6322 0
      vertex -37.08 -19.9 0
      vertex -38.8478 -20.6322 3
    endloop
  endfacet
  facet normal -0.382683 -0.92388 -0
    outer loop
      vertex -35.3122 -20.6322 0
      vertex -35.3122 -20.6322 3
      vertex -37.08 -19.9 3
    endloop
  endfacet
  facet normal -0.382683 -0.92388 -0
    outer loop
      vertex -37.08 -19.9 0
      vertex -35.3122 -20.6322 0
      vertex -37.08 -19.9 3
    endloop
  endfacet
  facet normal -0.92388 -0.382683 0
    outer loop
      vertex -34.58 -22.4 3
      vertex -35.3122 -20.6322 3
      vertex -34.58 -22.4 0
    endloop
  endfacet
  facet normal -0.92388 -0.382683 0
    outer loop
      vertex -34.58 -22.4 0
      vertex -35.3122 -20.6322 3
      vertex -35.3122 -20.6322 0
    endloop
  endfacet
  facet normal -0.92388 0.382683 0
    outer loop
      vertex -34.58 -22.4 3
      vertex -34.58 -22.4 0
      vertex -35.3122 -24.1678 3
    endloop
  endfacet
  facet normal -0.92388 0.382683 0
    outer loop
      vertex -35.3122 -24.1678 3
      vertex -34.58 -22.4 0
      vertex -35.3122 -24.1678 0
    endloop
  endfacet
  facet normal -0.382683 0.92388 0
    outer loop
      vertex -35.3122 -24.1678 3
      vertex -35.3122 -24.1678 0
      vertex -37.08 -24.9 3
    endloop
  endfacet
  facet normal -0.382683 0.92388 0
    outer loop
      vertex -37.08 -24.9 3
      vertex -35.3122 -24.1678 0
      vertex -37.08 -24.9 0
    endloop
  endfacet
  facet normal 0.382683 0.92388 -0
    outer loop
      vertex -37.08 -24.9 3
      vertex -37.08 -24.9 0
      vertex -38.8478 -24.1678 3
    endloop
  endfacet
  facet normal 0.382683 0.92388 -0
    outer loop
      vertex -38.8478 -24.1678 3
      vertex -37.08 -24.9 0
      vertex -38.8478 -24.1678 0
    endloop
  endfacet
  facet normal 0.92388 -0.382683 0
    outer loop
      vertex -38.8478 31.6278 0
      vertex -38.8478 31.6278 3
      vertex -39.58 29.86 3
    endloop
  endfacet
  facet normal 0.92388 -0.382683 0
    outer loop
      vertex -39.58 29.86 0
      vertex -38.8478 31.6278 0
      vertex -39.58 29.86 3
    endloop
  endfacet
  facet normal 0.92388 0.382683 0
    outer loop
      vertex -39.58 29.86 3
      vertex -38.8478 28.0922 3
      vertex -38.8478 28.0922 0
    endloop
  endfacet
  facet normal 0.92388 0.382683 0
    outer loop
      vertex -39.58 29.86 0
      vertex -39.58 29.86 3
      vertex -38.8478 28.0922 0
    endloop
  endfacet
  facet normal 0.382683 -0.92388 0
    outer loop
      vertex -37.08 32.36 0
      vertex -37.08 32.36 3
      vertex -38.8478 31.6278 3
    endloop
  endfacet
  facet normal 0.382683 -0.92388 0
    outer loop
      vertex -38.8478 31.6278 0
      vertex -37.08 32.36 0
      vertex -38.8478 31.6278 3
    endloop
  endfacet
  facet normal -0.382683 -0.92388 -0
    outer loop
      vertex -35.3122 31.6278 0
      vertex -35.3122 31.6278 3
      vertex -37.08 32.36 3
    endloop
  endfacet
  facet normal -0.382683 -0.92388 -0
    outer loop
      vertex -37.08 32.36 0
      vertex -35.3122 31.6278 0
      vertex -37.08 32.36 3
    endloop
  endfacet
  facet normal -0.92388 -0.382683 0
    outer loop
      vertex -34.58 29.86 3
      vertex -35.3122 31.6278 3
      vertex -34.58 29.86 0
    endloop
  endfacet
  facet normal -0.92388 -0.382683 0
    outer loop
      vertex -34.58 29.86 0
      vertex -35.3122 31.6278 3
      vertex -35.3122 31.6278 0
    endloop
  endfacet
  facet normal -0.92388 0.382683 0
    outer loop
      vertex -34.58 29.86 3
      vertex -34.58 29.86 0
      vertex -35.3122 28.0922 3
    endloop
  endfacet
  facet normal -0.92388 0.382683 0
    outer loop
      vertex -35.3122 28.0922 3
      vertex -34.58 29.86 0
      vertex -35.3122 28.0922 0
    endloop
  endfacet
  facet normal -0.382683 0.92388 0
    outer loop
      vertex -35.3122 28.0922 3
      vertex -35.3122 28.0922 0
      vertex -37.08 27.36 3
    endloop
  endfacet
  facet normal -0.382683 0.92388 0
    outer loop
      vertex -37.08 27.36 3
      vertex -35.3122 28.0922 0
      vertex -37.08 27.36 0
    endloop
  endfacet
  facet normal 0.382683 0.92388 -0
    outer loop
      vertex -37.08 27.36 3
      vertex -37.08 27.36 0
      vertex -38.8478 28.0922 3
    endloop
  endfacet
  facet normal 0.382683 0.92388 -0
    outer loop
      vertex -38.8478 28.0922 3
      vertex -37.08 27.36 0
      vertex -38.8478 28.0922 0
    endloop
  endfacet
  facet normal 0.92388 0.382683 0
    outer loop
      vertex -39.58 45.6 2
      vertex -38.8478 43.8322 2
      vertex -38.8478 43.8322 0
    endloop
  endfacet
  facet normal 0.92388 0.382683 0
    outer loop
      vertex -39.58 45.6 0
      vertex -39.58 45.6 2
      vertex -38.8478 43.8322 0
    endloop
  endfacet
  facet normal 0.92388 -0.382683 0
    outer loop
      vertex -38.8478 47.3678 0
      vertex -38.8478 47.3678 2
      vertex -39.58 45.6 2
    endloop
  endfacet
  facet normal 0.92388 -0.382683 0
    outer loop
      vertex -39.58 45.6 0
      vertex -38.8478 47.3678 0
      vertex -39.58 45.6 2
    endloop
  endfacet
  facet normal 0.382683 -0.92388 0
    outer loop
      vertex -37.08 48.1 0
      vertex -37.08 48.1 2
      vertex -38.8478 47.3678 2
    endloop
  endfacet
  facet normal 0.382683 -0.92388 0
    outer loop
      vertex -38.8478 47.3678 0
      vertex -37.08 48.1 0
      vertex -38.8478 47.3678 2
    endloop
  endfacet
  facet normal -0.382683 -0.92388 -0
    outer loop
      vertex -35.3122 47.3678 0
      vertex -35.3122 47.3678 2
      vertex -37.08 48.1 2
    endloop
  endfacet
  facet normal -0.382683 -0.92388 -0
    outer loop
      vertex -37.08 48.1 0
      vertex -35.3122 47.3678 0
      vertex -37.08 48.1 2
    endloop
  endfacet
  facet normal -0.92388 -0.382683 0
    outer loop
      vertex -34.58 45.6 2
      vertex -35.3122 47.3678 2
      vertex -34.58 45.6 0
    endloop
  endfacet
  facet normal -0.92388 -0.382683 0
    outer loop
      vertex -34.58 45.6 0
      vertex -35.3122 47.3678 2
      vertex -35.3122 47.3678 0
    endloop
  endfacet
  facet normal -0.92388 0.382683 0
    outer loop
      vertex -34.58 45.6 2
      vertex -34.58 45.6 0
      vertex -35.3122 43.8322 2
    endloop
  endfacet
  facet normal -0.92388 0.382683 0
    outer loop
      vertex -35.3122 43.8322 2
      vertex -34.58 45.6 0
      vertex -35.3122 43.8322 0
    endloop
  endfacet
  facet normal -0.382683 0.92388 0
    outer loop
      vertex -35.3122 43.8322 2
      vertex -35.3122 43.8322 0
      vertex -37.08 43.1 2
    endloop
  endfacet
  facet normal -0.382683 0.92388 0
    outer loop
      vertex -37.08 43.1 2
      vertex -35.3122 43.8322 0
      vertex -37.08 43.1 0
    endloop
  endfacet
  facet normal 0.382683 0.92388 -0
    outer loop
      vertex -37.08 43.1 2
      vertex -37.08 43.1 0
      vertex -38.8478 43.8322 2
    endloop
  endfacet
  facet normal 0.382683 0.92388 -0
    outer loop
      vertex -38.8478 43.8322 2
      vertex -37.08 43.1 0
      vertex -38.8478 43.8322 0
    endloop
  endfacet
  facet normal 1 0 -0
    outer loop
      vertex -32.58 -17.9247 2
      vertex -32.58 -17.9247 0
      vertex -32.58 41.1247 0
    endloop
  endfacet
  facet normal 1 0 0
    outer loop
      vertex -32.58 41.1247 2
      vertex -32.58 -17.9247 2
      vertex -32.58 41.1247 0
    endloop
  endfacet
  facet normal 0 -1 0
    outer loop
      vertex -32.58 41.1247 2
      vertex -32.58 41.1247 0
      vertex 33.1471 41.1247 0
    endloop
  endfacet
  facet normal 0 -1 0
    outer loop
      vertex 33.1471 41.1247 2
      vertex -32.58 41.1247 2
      vertex 33.1471 41.1247 0
    endloop
  endfacet
  facet normal -0.997654 0.068454 0
    outer loop
      vertex 32.4383 30.7956 0
      vertex 32.4383 30.7956 2
      vertex 33.1471 41.1247 0
    endloop
  endfacet
  facet normal -0.997654 0.068454 0
    outer loop
      vertex 33.1471 41.1247 0
      vertex 32.4383 30.7956 2
      vertex 33.1471 41.1247 2
    endloop
  endfacet
  facet normal -1 -0 -0
    outer loop
      vertex 32.4383 28.9244 0
      vertex 32.4383 28.9244 2
      vertex 32.4383 30.7956 0
    endloop
  endfacet
  facet normal -1 0 0
    outer loop
      vertex 32.4383 30.7956 0
      vertex 32.4383 28.9244 2
      vertex 32.4383 30.7956 2
    endloop
  endfacet
  facet normal -0.913545 -0.406737 -0
    outer loop
      vertex 32.4383 28.9244 0
      vertex 33.1994 27.215 0
      vertex 32.4383 28.9244 2
    endloop
  endfacet
  facet normal -0.913545 -0.406737 0
    outer loop
      vertex 32.4383 28.9244 2
      vertex 33.1994 27.215 0
      vertex 33.1994 27.215 2
    endloop
  endfacet
  facet normal -0.669131 -0.743145 0
    outer loop
      vertex 33.1994 27.215 2
      vertex 33.1994 27.215 0
      vertex 33.5183 26.9278 0
    endloop
  endfacet
  facet normal -0.669131 -0.743145 0
    outer loop
      vertex 33.5183 26.9278 2
      vertex 33.1994 27.215 2
      vertex 33.5183 26.9278 0
    endloop
  endfacet
  facet normal -1 -0 -0
    outer loop
      vertex 33.5183 -17.9247 0
      vertex 33.5183 -17.9247 2
      vertex 33.5183 26.9278 0
    endloop
  endfacet
  facet normal -1 0 0
    outer loop
      vertex 33.5183 26.9278 0
      vertex 33.5183 -17.9247 2
      vertex 33.5183 26.9278 2
    endloop
  endfacet
  facet normal 0 1 0
    outer loop
      vertex -32.58 -17.9247 0
      vertex -32.58 -17.9247 2
      vertex 33.5183 -17.9247 0
    endloop
  endfacet
  facet normal 0 1 0
    outer loop
      vertex 33.5183 -17.9247 0
      vertex -32.58 -17.9247 2
      vertex 33.5183 -17.9247 2
    endloop
  endfacet
  facet normal 0.92388 -0.382683 0
    outer loop
      vertex 35.0722 -20.6322 0
      vertex 35.0722 -20.6322 3
      vertex 34.34 -22.4 3
    endloop
  endfacet
  facet normal 0.92388 -0.382683 0
    outer loop
      vertex 34.34 -22.4 0
      vertex 35.0722 -20.6322 0
      vertex 34.34 -22.4 3
    endloop
  endfacet
  facet normal 0.92388 0.382683 0
    outer loop
      vertex 34.34 -22.4 3
      vertex 35.0722 -24.1678 3
      vertex 35.0722 -24.1678 0
    endloop
  endfacet
  facet normal 0.92388 0.382683 0
    outer loop
      vertex 34.34 -22.4 0
      vertex 34.34 -22.4 3
      vertex 35.0722 -24.1678 0
    endloop
  endfacet
  facet normal 0.382683 -0.92388 0
    outer loop
      vertex 36.84 -19.9 0
      vertex 36.84 -19.9 3
      vertex 35.0722 -20.6322 3
    endloop
  endfacet
  facet normal 0.382683 -0.92388 0
    outer loop
      vertex 35.0722 -20.6322 0
      vertex 36.84 -19.9 0
      vertex 35.0722 -20.6322 3
    endloop
  endfacet
  facet normal -0.382683 -0.92388 -0
    outer loop
      vertex 38.6078 -20.6322 0
      vertex 38.6078 -20.6322 3
      vertex 36.84 -19.9 3
    endloop
  endfacet
  facet normal -0.382683 -0.92388 -0
    outer loop
      vertex 36.84 -19.9 0
      vertex 38.6078 -20.6322 0
      vertex 36.84 -19.9 3
    endloop
  endfacet
  facet normal -0.92388 -0.382683 0
    outer loop
      vertex 39.34 -22.4 3
      vertex 38.6078 -20.6322 3
      vertex 39.34 -22.4 0
    endloop
  endfacet
  facet normal -0.92388 -0.382683 0
    outer loop
      vertex 39.34 -22.4 0
      vertex 38.6078 -20.6322 3
      vertex 38.6078 -20.6322 0
    endloop
  endfacet
  facet normal -0.92388 0.382683 0
    outer loop
      vertex 39.34 -22.4 3
      vertex 39.34 -22.4 0
      vertex 38.6078 -24.1678 3
    endloop
  endfacet
  facet normal -0.92388 0.382683 0
    outer loop
      vertex 38.6078 -24.1678 3
      vertex 39.34 -22.4 0
      vertex 38.6078 -24.1678 0
    endloop
  endfacet
  facet normal -0.382683 0.92388 0
    outer loop
      vertex 38.6078 -24.1678 3
      vertex 38.6078 -24.1678 0
      vertex 36.84 -24.9 3
    endloop
  endfacet
  facet normal -0.382683 0.92388 0
    outer loop
      vertex 36.84 -24.9 3
      vertex 38.6078 -24.1678 0
      vertex 36.84 -24.9 0
    endloop
  endfacet
  facet normal 0.382683 0.92388 -0
    outer loop
      vertex 36.84 -24.9 3
      vertex 36.84 -24.9 0
      vertex 35.0722 -24.1678 3
    endloop
  endfacet
  facet normal 0.382683 0.92388 -0
    outer loop
      vertex 35.0722 -24.1678 3
      vertex 36.84 -24.9 0
      vertex 35.0722 -24.1678 0
    endloop
  endfacet
  facet normal 0.92388 -0.382683 0
    outer loop
      vertex 35.0722 31.6278 0
      vertex 35.0722 31.6278 3
      vertex 34.34 29.86 3
    endloop
  endfacet
  facet normal 0.92388 -0.382683 0
    outer loop
      vertex 34.34 29.86 0
      vertex 35.0722 31.6278 0
      vertex 34.34 29.86 3
    endloop
  endfacet
  facet normal 0.92388 0.382683 0
    outer loop
      vertex 34.34 29.86 3
      vertex 35.0722 28.0922 3
      vertex 35.0722 28.0922 0
    endloop
  endfacet
  facet normal 0.92388 0.382683 0
    outer loop
      vertex 34.34 29.86 0
      vertex 34.34 29.86 3
      vertex 35.0722 28.0922 0
    endloop
  endfacet
  facet normal 0.382683 -0.92388 0
    outer loop
      vertex 36.84 32.36 0
      vertex 36.84 32.36 3
      vertex 35.0722 31.6278 3
    endloop
  endfacet
  facet normal 0.382683 -0.92388 0
    outer loop
      vertex 35.0722 31.6278 0
      vertex 36.84 32.36 0
      vertex 35.0722 31.6278 3
    endloop
  endfacet
  facet normal -0.382683 -0.92388 -0
    outer loop
      vertex 38.6078 31.6278 0
      vertex 38.6078 31.6278 3
      vertex 36.84 32.36 3
    endloop
  endfacet
  facet normal -0.382683 -0.92388 -0
    outer loop
      vertex 36.84 32.36 0
      vertex 38.6078 31.6278 0
      vertex 36.84 32.36 3
    endloop
  endfacet
  facet normal -0.92388 -0.382683 0
    outer loop
      vertex 39.34 29.86 3
      vertex 38.6078 31.6278 3
      vertex 39.34 29.86 0
    endloop
  endfacet
  facet normal -0.92388 -0.382683 0
    outer loop
      vertex 39.34 29.86 0
      vertex 38.6078 31.6278 3
      vertex 38.6078 31.6278 0
    endloop
  endfacet
  facet normal -0.92388 0.382683 0
    outer loop
      vertex 39.34 29.86 3
      vertex 39.34 29.86 0
      vertex 38.6078 28.0922 3
    endloop
  endfacet
  facet normal -0.92388 0.382683 0
    outer loop
      vertex 38.6078 28.0922 3
      vertex 39.34 29.86 0
      vertex 38.6078 28.0922 0
    endloop
  endfacet
  facet normal -0.382683 0.92388 0
    outer loop
      vertex 38.6078 28.0922 3
      vertex 38.6078 28.0922 0
      vertex 36.84 27.36 3
    endloop
  endfacet
  facet normal -0.382683 0.92388 0
    outer loop
      vertex 36.84 27.36 3
      vertex 38.6078 28.0922 0
      vertex 36.84 27.36 0
    endloop
  endfacet
  facet normal 0.382683 0.92388 -0
    outer loop
      vertex 36.84 27.36 3
      vertex 36.84 27.36 0
      vertex 35.0722 28.0922 3
    endloop
  endfacet
  facet normal 0.382683 0.92388 -0
    outer loop
      vertex 35.0722 28.0922 3
      vertex 36.84 27.36 0
      vertex 35.0722 28.0922 0
    endloop
  endfacet
  facet normal 0.92388 0.382683 0
    outer loop
      vertex 35.42 45.6 2
      vertex 36.1522 43.8322 2
      vertex 36.1522 43.8322 0
    endloop
  endfacet
  facet normal 0.92388 0.382683 0
    outer loop
      vertex 35.42 45.6 0
      vertex 35.42 45.6 2
      vertex 36.1522 43.8322 0
    endloop
  endfacet
  facet normal 0.92388 -0.382683 0
    outer loop
      vertex 36.1522 47.3678 0
      vertex 36.1522 47.3678 2
      vertex 35.42 45.6 2
    endloop
  endfacet
  facet normal 0.92388 -0.382683 0
    outer loop
      vertex 35.42 45.6 0
      vertex 36.1522 47.3678 0
      vertex 35.42 45.6 2
    endloop
  endfacet
  facet normal 0.382683 -0.92388 0
    outer loop
      vertex 37.92 48.1 0
      vertex 37.92 48.1 2
      vertex 36.1522 47.3678 2
    endloop
  endfacet
  facet normal 0.382683 -0.92388 0
    outer loop
      vertex 36.1522 47.3678 0
      vertex 37.92 48.1 0
      vertex 36.1522 47.3678 2
    endloop
  endfacet
  facet normal -0.382683 -0.92388 -0
    outer loop
      vertex 39.6878 47.3678 0
      vertex 39.6878 47.3678 2
      vertex 37.92 48.1 2
    endloop
  endfacet
  facet normal -0.382683 -0.92388 -0
    outer loop
      vertex 37.92 48.1 0
      vertex 39.6878 47.3678 0
      vertex 37.92 48.1 2
    endloop
  endfacet
  facet normal -0.92388 -0.382683 0
    outer loop
      vertex 40.42 45.6 2
      vertex 39.6878 47.3678 2
      vertex 40.42 45.6 0
    endloop
  endfacet
  facet normal -0.92388 -0.382683 0
    outer loop
      vertex 40.42 45.6 0
      vertex 39.6878 47.3678 2
      vertex 39.6878 47.3678 0
    endloop
  endfacet
  facet normal -0.92388 0.382683 0
    outer loop
      vertex 40.42 45.6 2
      vertex 40.42 45.6 0
      vertex 39.6878 43.8322 2
    endloop
  endfacet
  facet normal -0.92388 0.382683 0
    outer loop
      vertex 39.6878 43.8322 2
      vertex 40.42 45.6 0
      vertex 39.6878 43.8322 0
    endloop
  endfacet
  facet normal -0.382683 0.92388 0
    outer loop
      vertex 39.6878 43.8322 2
      vertex 39.6878 43.8322 0
      vertex 37.92 43.1 2
    endloop
  endfacet
  facet normal -0.382683 0.92388 0
    outer loop
      vertex 37.92 43.1 2
      vertex 39.6878 43.8322 0
      vertex 37.92 43.1 0
    endloop
  endfacet
  facet normal 0.382683 0.92388 -0
    outer loop
      vertex 37.92 43.1 2
      vertex 37.92 43.1 0
      vertex 36.1522 43.8322 2
    endloop
  endfacet
  facet normal 0.382683 0.92388 -0
    outer loop
      vertex 36.1522 43.8322 2
      vertex 37.92 43.1 0
      vertex 36.1522 43.8322 0
    endloop
  endfacet
  facet normal -1 -0 -0
    outer loop
      vertex -39.6642 -23.3406 2
      vertex -39.6642 -23.3406 3
      vertex -39.6642 -21.4594 2
    endloop
  endfacet
  facet normal -1 0 0
    outer loop
      vertex -39.6642 -21.4594 2
      vertex -39.6642 -23.3406 3
      vertex -39.6642 -21.4594 3
    endloop
  endfacet
  facet normal -0.766044 -0.642788 -0
    outer loop
      vertex -39.6642 -23.3406 2
      vertex -38.455 -24.7816 2
      vertex -39.6642 -23.3406 3
    endloop
  endfacet
  facet normal -0.766044 -0.642788 0
    outer loop
      vertex -39.6642 -23.3406 3
      vertex -38.455 -24.7816 2
      vertex -38.455 -24.7816 3
    endloop
  endfacet
  facet normal -0.173648 -0.984808 0
    outer loop
      vertex -38.455 -24.7816 3
      vertex -38.455 -24.7816 2
      vertex -36.6025 -25.1082 2
    endloop
  endfacet
  facet normal -0.173648 -0.984808 0
    outer loop
      vertex -36.6025 -25.1082 3
      vertex -38.455 -24.7816 3
      vertex -36.6025 -25.1082 2
    endloop
  endfacet
  facet normal 0.5 -0.866026 0
    outer loop
      vertex -36.6025 -25.1082 3
      vertex -36.6025 -25.1082 2
      vertex -34.9734 -24.1677 2
    endloop
  endfacet
  facet normal 0.5 -0.866026 0
    outer loop
      vertex -34.9734 -24.1677 3
      vertex -36.6025 -25.1082 3
      vertex -34.9734 -24.1677 2
    endloop
  endfacet
  facet normal 0.939693 -0.34202 0
    outer loop
      vertex -34.9734 -24.1677 3
      vertex -34.9734 -24.1677 2
      vertex -34.33 -22.4 2
    endloop
  endfacet
  facet normal 0.939693 -0.34202 0
    outer loop
      vertex -34.33 -22.4 3
      vertex -34.9734 -24.1677 3
      vertex -34.33 -22.4 2
    endloop
  endfacet
  facet normal 0.939693 0.34202 0
    outer loop
      vertex -34.33 -22.4 2
      vertex -34.9734 -20.6323 2
      vertex -34.9734 -20.6323 3
    endloop
  endfacet
  facet normal 0.939693 0.34202 -0
    outer loop
      vertex -34.33 -22.4 3
      vertex -34.33 -22.4 2
      vertex -34.9734 -20.6323 3
    endloop
  endfacet
  facet normal 0.5 0.866026 0
    outer loop
      vertex -36.6025 -19.6918 2
      vertex -36.6025 -19.6918 3
      vertex -34.9734 -20.6323 2
    endloop
  endfacet
  facet normal 0.5 0.866026 0
    outer loop
      vertex -34.9734 -20.6323 2
      vertex -36.6025 -19.6918 3
      vertex -34.9734 -20.6323 3
    endloop
  endfacet
  facet normal -0.173648 0.984808 0
    outer loop
      vertex -38.455 -20.0184 2
      vertex -38.455 -20.0184 3
      vertex -36.6025 -19.6918 2
    endloop
  endfacet
  facet normal -0.173648 0.984808 0
    outer loop
      vertex -36.6025 -19.6918 2
      vertex -38.455 -20.0184 3
      vertex -36.6025 -19.6918 3
    endloop
  endfacet
  facet normal -0.766044 0.642788 0
    outer loop
      vertex -39.6642 -21.4594 2
      vertex -39.6642 -21.4594 3
      vertex -38.455 -20.0184 2
    endloop
  endfacet
  facet normal -0.766044 0.642788 0
    outer loop
      vertex -38.455 -20.0184 2
      vertex -39.6642 -21.4594 3
      vertex -38.455 -20.0184 3
    endloop
  endfacet
  facet normal -1 -0 -0
    outer loop
      vertex -39.6642 28.9194 2
      vertex -39.6642 28.9194 3
      vertex -39.6642 30.8006 2
    endloop
  endfacet
  facet normal -1 0 0
    outer loop
      vertex -39.6642 30.8006 2
      vertex -39.6642 28.9194 3
      vertex -39.6642 30.8006 3
    endloop
  endfacet
  facet normal -0.766044 -0.642788 -0
    outer loop
      vertex -39.6642 28.9194 2
      vertex -38.455 27.4784 2
      vertex -39.6642 28.9194 3
    endloop
  endfacet
  facet normal -0.766044 -0.642788 0
    outer loop
      vertex -39.6642 28.9194 3
      vertex -38.455 27.4784 2
      vertex -38.455 27.4784 3
    endloop
  endfacet
  facet normal -0.173648 -0.984808 0
    outer loop
      vertex -38.455 27.4784 3
      vertex -38.455 27.4784 2
      vertex -36.6025 27.1518 2
    endloop
  endfacet
  facet normal -0.173648 -0.984808 0
    outer loop
      vertex -36.6025 27.1518 3
      vertex -38.455 27.4784 3
      vertex -36.6025 27.1518 2
    endloop
  endfacet
  facet normal 0.5 -0.866026 0
    outer loop
      vertex -36.6025 27.1518 3
      vertex -36.6025 27.1518 2
      vertex -34.9734 28.0923 2
    endloop
  endfacet
  facet normal 0.5 -0.866026 0
    outer loop
      vertex -34.9734 28.0923 3
      vertex -36.6025 27.1518 3
      vertex -34.9734 28.0923 2
    endloop
  endfacet
  facet normal 0.939693 -0.34202 0
    outer loop
      vertex -34.9734 28.0923 3
      vertex -34.9734 28.0923 2
      vertex -34.33 29.86 2
    endloop
  endfacet
  facet normal 0.939693 -0.34202 0
    outer loop
      vertex -34.33 29.86 3
      vertex -34.9734 28.0923 3
      vertex -34.33 29.86 2
    endloop
  endfacet
  facet normal 0.939693 0.34202 0
    outer loop
      vertex -34.33 29.86 2
      vertex -34.9734 31.6277 2
      vertex -34.9734 31.6277 3
    endloop
  endfacet
  facet normal 0.939693 0.34202 -0
    outer loop
      vertex -34.33 29.86 3
      vertex -34.33 29.86 2
      vertex -34.9734 31.6277 3
    endloop
  endfacet
  facet normal 0.5 0.866026 0
    outer loop
      vertex -36.6025 32.5682 2
      vertex -36.6025 32.5682 3
      vertex -34.9734 31.6277 2
    endloop
  endfacet
  facet normal 0.5 0.866026 0
    outer loop
      vertex -34.9734 31.6277 2
      vertex -36.6025 32.5682 3
      vertex -34.9734 31.6277 3
    endloop
  endfacet
  facet normal -0.173648 0.984808 0
    outer loop
      vertex -38.455 32.2416 2
      vertex -38.455 32.2416 3
      vertex -36.6025 32.5682 2
    endloop
  endfacet
  facet normal -0.173648 0.984808 0
    outer loop
      vertex -36.6025 32.5682 2
      vertex -38.455 32.2416 3
      vertex -36.6025 32.5682 3
    endloop
  endfacet
  facet normal -0.766044 0.642788 0
    outer loop
      vertex -39.6642 30.8006 2
      vertex -39.6642 30.8006 3
      vertex -38.455 32.2416 2
    endloop
  endfacet
  facet normal -0.766044 0.642788 0
    outer loop
      vertex -38.455 32.2416 2
      vertex -39.6642 30.8006 3
      vertex -38.455 32.2416 3
    endloop
  endfacet
  facet normal -1 -0 -0
    outer loop
      vertex 34.2558 -23.3406 2
      vertex 34.2558 -23.3406 3
      vertex 34.2558 -21.4594 2
    endloop
  endfacet
  facet normal -1 0 0
    outer loop
      vertex 34.2558 -21.4594 2
      vertex 34.2558 -23.3406 3
      vertex 34.2558 -21.4594 3
    endloop
  endfacet
  facet normal -0.766044 -0.642788 -0
    outer loop
      vertex 34.2558 -23.3406 2
      vertex 35.465 -24.7816 2
      vertex 34.2558 -23.3406 3
    endloop
  endfacet
  facet normal -0.766044 -0.642788 0
    outer loop
      vertex 34.2558 -23.3406 3
      vertex 35.465 -24.7816 2
      vertex 35.465 -24.7816 3
    endloop
  endfacet
  facet normal -0.173648 -0.984808 0
    outer loop
      vertex 35.465 -24.7816 3
      vertex 35.465 -24.7816 2
      vertex 37.3175 -25.1082 2
    endloop
  endfacet
  facet normal -0.173648 -0.984808 0
    outer loop
      vertex 37.3175 -25.1082 3
      vertex 35.465 -24.7816 3
      vertex 37.3175 -25.1082 2
    endloop
  endfacet
  facet normal 0.5 -0.866026 0
    outer loop
      vertex 37.3175 -25.1082 3
      vertex 37.3175 -25.1082 2
      vertex 38.9466 -24.1677 2
    endloop
  endfacet
  facet normal 0.5 -0.866026 0
    outer loop
      vertex 38.9466 -24.1677 3
      vertex 37.3175 -25.1082 3
      vertex 38.9466 -24.1677 2
    endloop
  endfacet
  facet normal 0.939693 -0.34202 0
    outer loop
      vertex 38.9466 -24.1677 3
      vertex 38.9466 -24.1677 2
      vertex 39.59 -22.4 2
    endloop
  endfacet
  facet normal 0.939693 -0.34202 0
    outer loop
      vertex 39.59 -22.4 3
      vertex 38.9466 -24.1677 3
      vertex 39.59 -22.4 2
    endloop
  endfacet
  facet normal 0.939693 0.34202 0
    outer loop
      vertex 39.59 -22.4 2
      vertex 38.9466 -20.6323 2
      vertex 38.9466 -20.6323 3
    endloop
  endfacet
  facet normal 0.939693 0.34202 -0
    outer loop
      vertex 39.59 -22.4 3
      vertex 39.59 -22.4 2
      vertex 38.9466 -20.6323 3
    endloop
  endfacet
  facet normal 0.5 0.866026 0
    outer loop
      vertex 37.3175 -19.6918 2
      vertex 37.3175 -19.6918 3
      vertex 38.9466 -20.6323 2
    endloop
  endfacet
  facet normal 0.5 0.866026 0
    outer loop
      vertex 38.9466 -20.6323 2
      vertex 37.3175 -19.6918 3
      vertex 38.9466 -20.6323 3
    endloop
  endfacet
  facet normal -0.173648 0.984808 0
    outer loop
      vertex 35.465 -20.0184 2
      vertex 35.465 -20.0184 3
      vertex 37.3175 -19.6918 2
    endloop
  endfacet
  facet normal -0.173648 0.984808 0
    outer loop
      vertex 37.3175 -19.6918 2
      vertex 35.465 -20.0184 3
      vertex 37.3175 -19.6918 3
    endloop
  endfacet
  facet normal -0.766044 0.642788 0
    outer loop
      vertex 34.2558 -21.4594 2
      vertex 34.2558 -21.4594 3
      vertex 35.465 -20.0184 2
    endloop
  endfacet
  facet normal -0.766044 0.642788 0
    outer loop
      vertex 35.465 -20.0184 2
      vertex 34.2558 -21.4594 3
      vertex 35.465 -20.0184 3
    endloop
  endfacet
  facet normal -1 -0 -0
    outer loop
      vertex 34.2558 28.9194 2
      vertex 34.2558 28.9194 3
      vertex 34.2558 30.8006 2
    endloop
  endfacet
  facet normal -1 0 0
    outer loop
      vertex 34.2558 30.8006 2
      vertex 34.2558 28.9194 3
      vertex 34.2558 30.8006 3
    endloop
  endfacet
  facet normal -0.766044 -0.642788 -0
    outer loop
      vertex 34.2558 28.9194 2
      vertex 35.465 27.4784 2
      vertex 34.2558 28.9194 3
    endloop
  endfacet
  facet normal -0.766044 -0.642788 0
    outer loop
      vertex 34.2558 28.9194 3
      vertex 35.465 27.4784 2
      vertex 35.465 27.4784 3
    endloop
  endfacet
  facet normal -0.173648 -0.984808 0
    outer loop
      vertex 35.465 27.4784 3
      vertex 35.465 27.4784 2
      vertex 37.3175 27.1518 2
    endloop
  endfacet
  facet normal -0.173648 -0.984808 0
    outer loop
      vertex 37.3175 27.1518 3
      vertex 35.465 27.4784 3
      vertex 37.3175 27.1518 2
    endloop
  endfacet
  facet normal 0.5 -0.866026 0
    outer loop
      vertex 37.3175 27.1518 3
      vertex 37.3175 27.1518 2
      vertex 38.9466 28.0923 2
    endloop
  endfacet
  facet normal 0.5 -0.866026 0
    outer loop
      vertex 38.9466 28.0923 3
      vertex 37.3175 27.1518 3
      vertex 38.9466 28.0923 2
    endloop
  endfacet
  facet normal 0.939693 -0.34202 0
    outer loop
      vertex 38.9466 28.0923 3
      vertex 38.9466 28.0923 2
      vertex 39.59 29.86 2
    endloop
  endfacet
  facet normal 0.939693 -0.34202 0
    outer loop
      vertex 39.59 29.86 3
      vertex 38.9466 28.0923 3
      vertex 39.59 29.86 2
    endloop
  endfacet
  facet normal 0.939693 0.34202 0
    outer loop
      vertex 39.59 29.86 2
      vertex 38.9466 31.6277 2
      vertex 38.9466 31.6277 3
    endloop
  endfacet
  facet normal 0.939693 0.34202 -0
    outer loop
      vertex 39.59 29.86 3
      vertex 39.59 29.86 2
      vertex 38.9466 31.6277 3
    endloop
  endfacet
  facet normal 0.5 0.866026 0
    outer loop
      vertex 37.3175 32.5682 2
      vertex 37.3175 32.5682 3
      vertex 38.9466 31.6277 2
    endloop
  endfacet
  facet normal 0.5 0.866026 0
    outer loop
      vertex 38.9466 31.6277 2
      vertex 37.3175 32.5682 3
      vertex 38.9466 31.6277 3
    endloop
  endfacet
  facet normal -0.173648 0.984808 0
    outer loop
      vertex 35.465 32.2416 2
      vertex 35.465 32.2416 3
      vertex 37.3175 32.5682 2
    endloop
  endfacet
  facet normal -0.173648 0.984808 0
    outer loop
      vertex 37.3175 32.5682 2
      vertex 35.465 32.2416 3
      vertex 37.3175 32.5682 3
    endloop
  endfacet
  facet normal -0.766044 0.642788 0
    outer loop
      vertex 34.2558 30.8006 2
      vertex 34.2558 30.8006 3
      vertex 35.465 32.2416 2
    endloop
  endfacet
  facet normal -0.766044 0.642788 0
    outer loop
      vertex 35.465 32.2416 2
      vertex 34.2558 30.8006 3
      vertex 35.465 32.2416 3
    endloop
  endfacet
  facet normal -0 -0 1
    outer loop
      vertex -38.8478 -24.1678 3
      vertex -39.6642 -23.3406 3
      vertex -38.455 -24.7816 3
    endloop
  endfacet
  facet normal 0 0 1
    outer loop
      vertex -35.3122 -20.6322 3
      vertex -34.33 -22.4 3
      vertex -34.9734 -20.6323 3
    endloop
  endfacet
  facet normal 0 0 1
    outer loop
      vertex -37.08 -19.9 3
      vertex -35.3122 -20.6322 3
      vertex -36.6025 -19.6918 3
    endloop
  endfacet
  facet normal 0 -0 1
    outer loop
      vertex -39.58 -22.4 3
      vertex -39.6642 -23.3406 3
      vertex -38.8478 -24.1678 3
    endloop
  endfacet
  facet normal 0 -0 1
    outer loop
      vertex -39.6642 -21.4594 3
      vertex -39.6642 -23.3406 3
      vertex -39.58 -22.4 3
    endloop
  endfacet
  facet normal 0 -0 1
    outer loop
      vertex -38.455 -20.0184 3
      vertex -38.8478 -20.6322 3
      vertex -36.6025 -19.6918 3
    endloop
  endfacet
  facet normal 0 0 1
    outer loop
      vertex -38.455 -20.0184 3
      vertex -39.6642 -21.4594 3
      vertex -38.8478 -20.6322 3
    endloop
  endfacet
  facet normal 0 0 1
    outer loop
      vertex -38.8478 -20.6322 3
      vertex -37.08 -19.9 3
      vertex -36.6025 -19.6918 3
    endloop
  endfacet
  facet normal 0 0 1
    outer loop
      vertex -36.6025 -19.6918 3
      vertex -35.3122 -20.6322 3
      vertex -34.9734 -20.6323 3
    endloop
  endfacet
  facet normal 0 0 1
    outer loop
      vertex -35.3122 -20.6322 3
      vertex -34.58 -22.4 3
      vertex -34.33 -22.4 3
    endloop
  endfacet
  facet normal 0 0 1
    outer loop
      vertex -34.33 -22.4 3
      vertex -34.58 -22.4 3
      vertex -34.9734 -24.1677 3
    endloop
  endfacet
  facet normal 0 0 1
    outer loop
      vertex -34.9734 -24.1677 3
      vertex -35.3122 -24.1678 3
      vertex -36.6025 -25.1082 3
    endloop
  endfacet
  facet normal 0 0 1
    outer loop
      vertex -36.6025 -25.1082 3
      vertex -37.08 -24.9 3
      vertex -38.455 -24.7816 3
    endloop
  endfacet
  facet normal 0 0 1
    outer loop
      vertex -37.08 -24.9 3
      vertex -38.8478 -24.1678 3
      vertex -38.455 -24.7816 3
    endloop
  endfacet
  facet normal 0 0 1
    outer loop
      vertex -34.58 -22.4 3
      vertex -35.3122 -24.1678 3
      vertex -34.9734 -24.1677 3
    endloop
  endfacet
  facet normal 0 0 1
    outer loop
      vertex -35.3122 -24.1678 3
      vertex -37.08 -24.9 3
      vertex -36.6025 -25.1082 3
    endloop
  endfacet
  facet normal 0 0 1
    outer loop
      vertex -39.58 -22.4 3
      vertex -38.8478 -20.6322 3
      vertex -39.6642 -21.4594 3
    endloop
  endfacet
  facet normal -0 -0 1
    outer loop
      vertex -38.8478 28.0922 3
      vertex -39.6642 28.9194 3
      vertex -38.455 27.4784 3
    endloop
  endfacet
  facet normal 0 0 1
    outer loop
      vertex -35.3122 31.6278 3
      vertex -34.33 29.86 3
      vertex -34.9734 31.6277 3
    endloop
  endfacet
  facet normal 0 0 1
    outer loop
      vertex -37.08 32.36 3
      vertex -35.3122 31.6278 3
      vertex -36.6025 32.5682 3
    endloop
  endfacet
  facet normal 0 -0 1
    outer loop
      vertex -39.58 29.86 3
      vertex -39.6642 28.9194 3
      vertex -38.8478 28.0922 3
    endloop
  endfacet
  facet normal 0 -0 1
    outer loop
      vertex -39.6642 30.8006 3
      vertex -39.6642 28.9194 3
      vertex -39.58 29.86 3
    endloop
  endfacet
  facet normal 0 -0 1
    outer loop
      vertex -38.455 32.2416 3
      vertex -38.8478 31.6278 3
      vertex -36.6025 32.5682 3
    endloop
  endfacet
  facet normal 0 0 1
    outer loop
      vertex -38.455 32.2416 3
      vertex -39.6642 30.8006 3
      vertex -38.8478 31.6278 3
    endloop
  endfacet
  facet normal 0 0 1
    outer loop
      vertex -38.8478 31.6278 3
      vertex -37.08 32.36 3
      vertex -36.6025 32.5682 3
    endloop
  endfacet
  facet normal 0 0 1
    outer loop
      vertex -36.6025 32.5682 3
      vertex -35.3122 31.6278 3
      vertex -34.9734 31.6277 3
    endloop
  endfacet
  facet normal 0 0 1
    outer loop
      vertex -35.3122 31.6278 3
      vertex -34.58 29.86 3
      vertex -34.33 29.86 3
    endloop
  endfacet
  facet normal 0 0 1
    outer loop
      vertex -34.33 29.86 3
      vertex -34.58 29.86 3
      vertex -34.9734 28.0923 3
    endloop
  endfacet
  facet normal 0 0 1
    outer loop
      vertex -34.9734 28.0923 3
      vertex -35.3122 28.0922 3
      vertex -36.6025 27.1518 3
    endloop
  endfacet
  facet normal 0 0 1
    outer loop
      vertex -36.6025 27.1518 3
      vertex -37.08 27.36 3
      vertex -38.455 27.4784 3
    endloop
  endfacet
  facet normal 0 0 1
    outer loop
      vertex -37.08 27.36 3
      vertex -38.8478 28.0922 3
      vertex -38.455 27.4784 3
    endloop
  endfacet
  facet normal 0 0 1
    outer loop
      vertex -34.58 29.86 3
      vertex -35.3122 28.0922 3
      vertex -34.9734 28.0923 3
    endloop
  endfacet
  facet normal 0 0 1
    outer loop
      vertex -35.3122 28.0922 3
      vertex -37.08 27.36 3
      vertex -36.6025 27.1518 3
    endloop
  endfacet
  facet normal 0 0 1
    outer loop
      vertex -39.58 29.86 3
      vertex -38.8478 31.6278 3
      vertex -39.6642 30.8006 3
    endloop
  endfacet
  facet normal -0 -0 1
    outer loop
      vertex 35.0722 -24.1678 3
      vertex 34.2558 -23.3406 3
      vertex 35.465 -24.7816 3
    endloop
  endfacet
  facet normal 0 0 1
    outer loop
      vertex 38.6078 -20.6322 3
      vertex 39.59 -22.4 3
      vertex 38.9466 -20.6323 3
    endloop
  endfacet
  facet normal 0 0 1
    outer loop
      vertex 36.84 -19.9 3
      vertex 38.6078 -20.6322 3
      vertex 37.3175 -19.6918 3
    endloop
  endfacet
  facet normal 0 -0 1
    outer loop
      vertex 34.34 -22.4 3
      vertex 34.2558 -23.3406 3
      vertex 35.0722 -24.1678 3
    endloop
  endfacet
  facet normal 0 -0 1
    outer loop
      vertex 34.2558 -21.4594 3
      vertex 34.2558 -23.3406 3
      vertex 34.34 -22.4 3
    endloop
  endfacet
  facet normal 0 -0 1
    outer loop
      vertex 35.465 -20.0184 3
      vertex 35.0722 -20.6322 3
      vertex 37.3175 -19.6918 3
    endloop
  endfacet
  facet normal 0 0 1
    outer loop
      vertex 35.465 -20.0184 3
      vertex 34.2558 -21.4594 3
      vertex 35.0722 -20.6322 3
    endloop
  endfacet
  facet normal 0 0 1
    outer loop
      vertex 35.0722 -20.6322 3
      vertex 36.84 -19.9 3
      vertex 37.3175 -19.6918 3
    endloop
  endfacet
  facet normal 0 0 1
    outer loop
      vertex 37.3175 -19.6918 3
      vertex 38.6078 -20.6322 3
      vertex 38.9466 -20.6323 3
    endloop
  endfacet
  facet normal 0 0 1
    outer loop
      vertex 38.6078 -20.6322 3
      vertex 39.34 -22.4 3
      vertex 39.59 -22.4 3
    endloop
  endfacet
  facet normal 0 0 1
    outer loop
      vertex 39.59 -22.4 3
      vertex 39.34 -22.4 3
      vertex 38.9466 -24.1677 3
    endloop
  endfacet
  facet normal 0 0 1
    outer loop
      vertex 38.9466 -24.1677 3
      vertex 38.6078 -24.1678 3
      vertex 37.3175 -25.1082 3
    endloop
  endfacet
  facet normal 0 0 1
    outer loop
      vertex 37.3175 -25.1082 3
      vertex 36.84 -24.9 3
      vertex 35.465 -24.7816 3
    endloop
  endfacet
  facet normal 0 0 1
    outer loop
      vertex 36.84 -24.9 3
      vertex 35.0722 -24.1678 3
      vertex 35.465 -24.7816 3
    endloop
  endfacet
  facet normal 0 0 1
    outer loop
      vertex 39.34 -22.4 3
      vertex 38.6078 -24.1678 3
      vertex 38.9466 -24.1677 3
    endloop
  endfacet
  facet normal 0 0 1
    outer loop
      vertex 38.6078 -24.1678 3
      vertex 36.84 -24.9 3
      vertex 37.3175 -25.1082 3
    endloop
  endfacet
  facet normal 0 0 1
    outer loop
      vertex 34.34 -22.4 3
      vertex 35.0722 -20.6322 3
      vertex 34.2558 -21.4594 3
    endloop
  endfacet
  facet normal -0 -0 1
    outer loop
      vertex 35.0722 28.0922 3
      vertex 34.2558 28.9194 3
      vertex 35.465 27.4784 3
    endloop
  endfacet
  facet normal 0 0 1
    outer loop
      vertex 38.6078 31.6278 3
      vertex 39.59 29.86 3
      vertex 38.9466 31.6277 3
    endloop
  endfacet
  facet normal 0 0 1
    outer loop
      vertex 36.84 32.36 3
      vertex 38.6078 31.6278 3
      vertex 37.3175 32.5682 3
    endloop
  endfacet
  facet normal 0 -0 1
    outer loop
      vertex 34.34 29.86 3
      vertex 34.2558 28.9194 3
      vertex 35.0722 28.0922 3
    endloop
  endfacet
  facet normal 0 -0 1
    outer loop
      vertex 34.2558 30.8006 3
      vertex 34.2558 28.9194 3
      vertex 34.34 29.86 3
    endloop
  endfacet
  facet normal 0 -0 1
    outer loop
      vertex 35.465 32.2416 3
      vertex 35.0722 31.6278 3
      vertex 37.3175 32.5682 3
    endloop
  endfacet
  facet normal 0 0 1
    outer loop
      vertex 35.465 32.2416 3
      vertex 34.2558 30.8006 3
      vertex 35.0722 31.6278 3
    endloop
  endfacet
  facet normal 0 0 1
    outer loop
      vertex 35.0722 31.6278 3
      vertex 36.84 32.36 3
      vertex 37.3175 32.5682 3
    endloop
  endfacet
  facet normal 0 0 1
    outer loop
      vertex 37.3175 32.5682 3
      vertex 38.6078 31.6278 3
      vertex 38.9466 31.6277 3
    endloop
  endfacet
  facet normal 0 0 1
    outer loop
      vertex 38.6078 31.6278 3
      vertex 39.34 29.86 3
      vertex 39.59 29.86 3
    endloop
  endfacet
  facet normal 0 0 1
    outer loop
      vertex 39.59 29.86 3
      vertex 39.34 29.86 3
      vertex 38.9466 28.0923 3
    endloop
  endfacet
  facet normal 0 0 1
    outer loop
      vertex 38.9466 28.0923 3
      vertex 38.6078 28.0922 3
      vertex 37.3175 27.1518 3
    endloop
  endfacet
  facet normal 0 0 1
    outer loop
      vertex 37.3175 27.1518 3
      vertex 36.84 27.36 3
      vertex 35.465 27.4784 3
    endloop
  endfacet
  facet normal 0 0 1
    outer loop
      vertex 36.84 27.36 3
      vertex 35.0722 28.0922 3
      vertex 35.465 27.4784 3
    endloop
  endfacet
  facet normal 0 0 1
    outer loop
      vertex 39.34 29.86 3
      vertex 38.6078 28.0922 3
      vertex 38.9466 28.0923 3
    endloop
  endfacet
  facet normal 0 0 1
    outer loop
      vertex 38.6078 28.0922 3
      vertex 36.84 27.36 3
      vertex 37.3175 27.1518 3
    endloop
  endfacet
  facet normal 0 0 1
    outer loop
      vertex 34.34 29.86 3
      vertex 35.0722 31.6278 3
      vertex 34.2558 30.8006 3
    endloop
  endfacet
endsolid OpenSCAD_Model
